<svg width="187" height="187" viewBox="0 0 187 187" fill="none" xmlns="http://www.w3.org/2000/svg">
<path d="M142.639 98.4694C149.974 98.4694 155.92 92.5235 155.92 85.1889C155.92 77.8543 149.974 71.9084 142.639 71.9084C135.305 71.9084 129.359 77.8543 129.359 85.1889C129.359 92.5235 135.305 98.4694 142.639 98.4694Z" fill="#FDDA24"/>
<path d="M142.639 98.5559C135.263 98.5559 129.272 92.5649 129.272 85.1888C129.272 77.8127 135.263 71.8218 142.639 71.8218C150.016 71.8218 156.007 77.83 156.007 85.1888C156.007 92.5476 149.998 98.5559 142.639 98.5559ZM142.639 71.9949C135.367 71.9949 129.446 77.9166 129.446 85.1888C129.446 92.461 135.367 98.3827 142.639 98.3827C149.912 98.3827 155.833 92.4784 155.833 85.1888C155.833 77.8993 149.912 71.9949 142.639 71.9949Z" fill="#FDDA24"/>
<path d="M142.639 92.8419C146.866 92.8419 150.293 89.4155 150.293 85.1888C150.293 80.9621 146.866 77.5356 142.639 77.5356C138.413 77.5356 134.986 80.9621 134.986 85.1888C134.986 89.4155 138.413 92.8419 142.639 92.8419Z" fill="#FF7F41"/>
<path d="M74.3152 115.109H74.2979C72.4972 115.091 71.0427 113.62 71.06 111.836C71.0947 107.525 70.125 103.04 69.19 99.2137C68.9476 98.2441 68.6879 97.2572 68.4455 96.2875C67.1123 91.0584 65.7271 85.6389 65.6232 79.977C65.4674 71.8736 68.2897 64.7226 73.3629 60.342C76.3584 57.7447 80.133 56.0652 84.5656 55.3207C86.349 55.0263 88.0113 56.221 88.3056 58.0045C88.6 59.7879 87.4052 61.4501 85.6218 61.7445C82.4013 62.2812 79.7001 63.4586 77.6224 65.2594C74.0209 68.376 72.0297 73.6917 72.1336 79.8558C72.2201 84.7385 73.4495 89.5694 74.7654 94.6599C75.0078 95.6296 75.2676 96.6338 75.5273 97.6381C76.5662 101.863 77.6224 106.85 77.5877 111.871C77.5531 113.672 76.0987 115.109 74.3152 115.109Z" fill="#59CBE8"/>
<path d="M65.7963 86.4356C64.9998 86.4356 64.2552 85.8988 64.0475 85.085C63.9609 84.7387 61.8138 76.3757 65.3288 68.1685C65.727 67.2508 66.8005 66.8179 67.7182 67.2161C68.6359 67.6144 69.0688 68.6706 68.6705 69.6056C65.6577 76.6527 67.5451 84.0981 67.5624 84.1674C67.8221 85.137 67.2334 86.1239 66.2638 86.3836C66.1079 86.4183 65.9521 86.4356 65.7963 86.4356Z" fill="#00C389"/>
<path d="M155.349 64.5323L104.426 115.455L81.5528 92.565L43.7026 130.415L31.0974 117.55L81.5528 67.1122L104.426 89.9851L142.622 51.7886L155.349 64.5323Z" fill="#9063CD"/>
<path d="M128.632 42.248H165.599V79.2152" fill="#9063CD"/>
<path d="M43.01 114.832C54.8582 114.832 64.4631 105.227 64.4631 93.3788C64.4631 81.5306 54.8582 71.9258 43.01 71.9258C31.1618 71.9258 21.5569 81.5306 21.5569 93.3788C21.5569 105.227 31.1618 114.832 43.01 114.832Z" fill="#FDDA24"/>
<path d="M43.01 114.918C31.132 114.918 21.4704 105.257 21.4704 93.3787C21.4704 81.5008 31.132 71.8391 43.01 71.8391C54.888 71.8391 64.5496 81.5008 64.5496 93.3787C64.5669 105.257 54.888 114.918 43.01 114.918ZM43.01 71.9949C31.2359 71.9949 21.6435 81.5874 21.6435 93.3787C21.6435 105.17 31.2359 114.745 43.01 114.745C54.7841 114.745 64.3765 105.153 64.3765 93.3787C64.3938 81.5874 54.8014 71.9949 43.01 71.9949Z" fill="#FDDA24"/>
<path d="M43.01 105.741C49.8378 105.741 55.3728 100.206 55.3728 93.3786C55.3728 86.5509 49.8378 81.0159 43.01 81.0159C36.1822 81.0159 30.6472 86.5509 30.6472 93.3786C30.6472 100.206 36.1822 105.741 43.01 105.741Z" fill="#FF7F41"/>
<path d="M130.935 71.718C126.692 71.718 122.814 70.9388 120.061 70.177C116.252 69.1381 112.581 67.7183 109.031 66.3331C106.798 65.4673 104.478 64.567 102.192 63.8051C100.495 63.2337 99.5774 61.381 100.149 59.6842C100.72 57.9873 102.573 57.0696 104.27 57.641C106.677 58.4548 109.066 59.3725 111.369 60.2729C114.918 61.6407 118.26 62.9394 121.758 63.8917C129.965 66.1253 137.358 65.4327 142.016 61.987C143.471 60.9135 145.496 61.2252 146.57 62.6623C147.643 64.1168 147.332 66.1426 145.895 67.2161C141.272 70.6618 135.869 71.718 130.935 71.718Z" fill="#59CBE8"/>
<path d="M64.4803 144.856C62.6103 144.856 60.8615 143.73 60.1343 141.895C59.182 139.488 60.3594 136.769 62.7662 135.834C70.0557 132.96 74.6441 127.575 76.4275 119.818C77.8474 113.62 76.9124 108.165 76.9124 108.113C76.4449 105.568 78.1244 103.144 80.6697 102.677C83.215 102.209 85.639 103.906 86.1065 106.434C86.1585 106.728 87.3705 113.55 85.6217 121.532C83.215 132.493 76.5141 140.44 66.2118 144.509C65.6231 144.752 65.0517 144.856 64.4803 144.856Z" fill="#F5B6CD"/>
<path d="M107.906 60.5844C107.335 60.5844 106.746 60.4805 106.192 60.2555C100.062 57.8314 93.6039 56.9483 86.9896 57.6236C81.9683 58.143 78.7478 59.407 78.7131 59.4243H78.7304L75.1982 50.7669C75.8562 50.5072 91.3356 44.3431 109.62 51.5807C112.027 52.533 113.204 55.2515 112.252 57.6409C111.525 59.459 109.776 60.5844 107.906 60.5844Z" fill="#F5B6CD"/>
<path d="M58.7318 133.168C58.0219 133.168 57.3293 132.735 57.0523 132.043C56.6714 131.108 57.1216 130.051 58.0393 129.67C58.0912 129.653 62.7489 127.679 67.5278 122.502C68.2031 121.758 69.3631 121.723 70.0904 122.398C70.8349 123.074 70.8695 124.234 70.1943 124.961C64.844 130.761 59.6322 132.943 59.4244 133.03C59.1993 133.116 58.9569 133.168 58.7318 133.168Z" fill="#00C389"/>
<path d="M130.554 66.1771C129.567 66.1771 128.753 65.3807 128.736 64.3764C128.718 63.3721 129.532 62.5583 130.536 62.541C130.658 62.541 139.869 62.3333 145.877 56.6194C146.605 55.9268 147.747 55.9614 148.44 56.6886C149.133 57.4158 149.098 58.5586 148.371 59.2512C141.289 65.9867 131.004 66.1771 130.571 66.1771C130.554 66.1771 130.554 66.1771 130.554 66.1771Z" fill="#00C389"/>
<path d="M104.131 80.2889C111.552 80.2889 117.568 74.2732 117.568 66.8526C117.568 59.4319 111.552 53.4163 104.131 53.4163C96.7106 53.4163 90.695 59.4319 90.695 66.8526C90.695 74.2732 96.7106 80.2889 104.131 80.2889Z" fill="#FDDA24"/>
<path d="M104.131 80.3753C96.6859 80.3753 90.6084 74.3151 90.6084 66.8525C90.6084 59.3898 96.6686 53.3296 104.131 53.3296C111.594 53.3296 117.654 59.3898 117.654 66.8525C117.654 74.3151 111.594 80.3753 104.131 80.3753ZM104.131 53.5027C96.7725 53.5027 90.7815 59.4937 90.7815 66.8525C90.7815 74.2113 96.7725 80.2022 104.131 80.2022C111.49 80.2022 117.481 74.2113 117.481 66.8525C117.481 59.4937 111.49 53.5027 104.131 53.5027Z" fill="#FDDA24"/>
<path d="M104.131 74.5922C108.406 74.5922 111.871 71.127 111.871 66.8525C111.871 62.578 108.406 59.1128 104.131 59.1128C99.8568 59.1128 96.3916 62.578 96.3916 66.8525C96.3916 71.127 99.8568 74.5922 104.131 74.5922Z" fill="#FF7F41"/>
</svg>
